<svg width="42" height="42" viewBox="0 0 42 42" fill="none" xmlns="http://www.w3.org/2000/svg">
<g id="ant-design:facebook-filled">
<path id="Vector" d="M35.7103 4.55322H6.25117C5.54271 4.55322 4.97034 5.12559 4.97034 5.83405V35.2932C4.97034 36.0016 5.54271 36.574 6.25117 36.574H35.7103C36.4187 36.574 36.9911 36.0016 36.9911 35.2932V5.83405C36.9911 5.12559 36.4187 4.55322 35.7103 4.55322ZM32.0119 13.8993H29.4542C27.4489 13.8993 27.0607 14.8519 27.0607 16.2528V19.3388H31.8478L31.2234 24.17H27.0607V36.574H22.0694V24.174H17.8947V19.3388H22.0694V15.7765C22.0694 11.6418 24.5951 9.38836 28.2855 9.38836C30.0546 9.38836 31.5716 9.52045 32.0159 9.58048V13.8993H32.0119Z" fill="white"/>
</g>
</svg>
