<svg width="42" height="42" viewBox="0 0 42 42" fill="none" xmlns="http://www.w3.org/2000/svg">
<g id="ant-design:linkedin-filled">
<path id="Vector" d="M35.6981 4.55322H6.23896C5.5305 4.55322 4.95813 5.12559 4.95813 5.83405V35.2932C4.95813 36.0016 5.5305 36.574 6.23896 36.574H35.6981C36.4065 36.574 36.9789 36.0016 36.9789 35.2932V5.83405C36.9789 5.12559 36.4065 4.55322 35.6981 4.55322ZM14.4563 31.8389H9.70521V16.557H14.4563V31.8389ZM12.0828 14.4677C11.5381 14.4677 11.0057 14.3061 10.5528 14.0036C10.1 13.701 9.74701 13.2709 9.53859 12.7677C9.33016 12.2645 9.27562 11.7108 9.38188 11.1766C9.48813 10.6424 9.75041 10.1518 10.1355 9.76665C10.5207 9.38152 11.0113 9.11925 11.5455 9.013C12.0797 8.90674 12.6334 8.96127 13.1366 9.1697C13.6398 9.37813 14.0699 9.73109 14.3724 10.1839C14.675 10.6368 14.8365 11.1692 14.8365 11.7139C14.8325 13.2349 13.5997 14.4677 12.0828 14.4677ZM32.2438 31.8389H27.4968V24.4061C27.4968 22.633 27.4647 20.3555 25.0272 20.3555C22.5576 20.3555 22.1773 22.2847 22.1773 24.278V31.8389H17.4342V16.557H21.9892V18.6464H22.0532C22.6856 17.4456 24.2346 16.1768 26.5481 16.1768C31.3593 16.1768 32.2438 19.3428 32.2438 23.4575V31.8389Z" fill="white"/>
</g>
</svg>
