<svg width="47" height="47" viewBox="0 0 47 47" fill="none" xmlns="http://www.w3.org/2000/svg">
<g id="bx:bx-map">
<path id="Vector" d="M23.5 26.9036C27.7282 26.9036 31.1667 23.4651 31.1667 19.237C31.1667 15.0088 27.7282 11.5703 23.5 11.5703C19.2719 11.5703 15.8334 15.0088 15.8334 19.237C15.8334 23.4651 19.2719 26.9036 23.5 26.9036ZM23.5 15.4036C25.6141 15.4036 27.3334 17.1229 27.3334 19.237C27.3334 21.3511 25.6141 23.0703 23.5 23.0703C21.386 23.0703 19.6667 21.3511 19.6667 19.237C19.6667 17.1229 21.386 15.4036 23.5 15.4036Z" fill="white"/>
<path id="Vector_2" d="M22.3885 41.8806C22.7129 42.1123 23.1015 42.2368 23.5001 42.2368C23.8987 42.2368 24.2874 42.1123 24.6118 41.8806C25.1945 41.4686 38.889 31.5805 38.8335 19.2371C38.8335 10.7827 31.9545 3.90381 23.5001 3.90381C15.0457 3.90381 8.16679 10.7827 8.16679 19.2276C8.11121 31.5805 21.8058 41.4686 22.3885 41.8806ZM23.5001 7.73714C29.8424 7.73714 35.0001 12.8949 35.0001 19.2467C35.0404 27.7529 26.5898 35.3908 23.5001 37.8959C20.4124 35.3889 11.9599 27.7491 12.0001 19.2371C12.0001 12.8949 17.1579 7.73714 23.5001 7.73714Z" fill="white"/>
</g>
</svg>
