<svg width="42" height="42" viewBox="0 0 42 42" fill="none" xmlns="http://www.w3.org/2000/svg">
<g id="ant-design:twitter-outlined">
<path id="Vector" d="M37.645 10.2488C36.4202 10.7771 35.0873 11.1574 33.7144 11.3055C35.1398 10.4586 36.2072 9.12084 36.7164 7.54301C35.3788 8.33869 33.9136 8.89663 32.3855 9.19208C31.7469 8.50935 30.9745 7.96545 30.1165 7.59428C29.2585 7.22311 28.3332 7.03262 27.3983 7.03468C23.6159 7.03468 20.5739 10.1007 20.5739 13.8631C20.5739 14.3915 20.6379 14.9198 20.742 15.4281C15.0783 15.1319 10.027 12.4262 6.66887 8.28349C6.05697 9.32863 5.73632 10.5186 5.74026 11.7297C5.74026 14.0993 6.94505 16.1886 8.78224 17.4174C7.69955 17.3748 6.64222 17.0772 5.69624 16.5489V16.6329C5.69624 19.9511 8.04176 22.7009 11.1678 23.3333C10.5808 23.4857 9.97704 23.5637 9.37062 23.5654C8.92633 23.5654 8.50606 23.5214 8.08178 23.4613C8.94634 26.1671 11.464 28.1324 14.4619 28.1964C12.1164 30.0336 9.17849 31.1143 5.98843 31.1143C5.41605 31.1143 4.88771 31.0943 4.33936 31.0303C7.36532 32.9715 10.9556 34.0922 14.8222 34.0922C27.3743 34.0922 34.2428 23.6935 34.2428 14.6676C34.2428 14.3714 34.2428 14.0753 34.2227 13.7791C35.5516 12.8064 36.7164 11.6016 37.645 10.2488Z" fill="white"/>
</g>
</svg>
